# xmcd CD database file
#
# Track frame offsets:
#	150
#	13580
#	33600
#	51582
#	61108
#	79221
#	92805
#	107790
#	125463
#	150979
#	169667
#	194312
#
# Disc length: 2914 seconds
#
# Revision: 0
# Processed by: cddbd v1.5.1PL2 Copyright (c) Steve Scherf et al.
# Submitted via: CDex 1.51
#
DISCID=980b600c
DTITLE=Lars Drewes - Unerschrocken
DYEAR=2005
DGENRE=Blues
TTITLE0=Klosterfraumelissengeist
TTITLE1=85 DD
TTITLE2=Der Fussel
TTITLE3=mammanommawarmmann
TTITLE4=Unerschrocken
TTITLE5=Liebe, Bier und Rock´n Roll
TTITLE6=Ein Feuerwehrlied
TTITLE7=Wo will ich hin?
TTITLE8=Bewölkte Treckerventile
TTITLE9=Achterbahn
TTITLE10=Erna
TTITLE11=Lange Haare
EXTD=YEAR: 2005
EXTT0=
EXTT1=
EXTT2=
EXTT3=
EXTT4=
EXTT5=
EXTT6=
EXTT7=
EXTT8=
EXTT9=
EXTT10=
EXTT11=
PLAYORDER=
